<svg width="52" height="45" viewBox="0 0 52 45" fill="none" xmlns="http://www.w3.org/2000/svg">
<path id="Vector" fill-rule="evenodd" clip-rule="evenodd" d="M26.9128 44.0581C27.5213 44.6612 28.3466 45 29.2071 45C30.0677 45 30.8929 44.6612 31.5015 44.0581L50.9729 24.7551C51.5813 24.1518 51.9231 23.3337 51.9231 22.4806C51.9231 21.6275 51.5813 20.8094 50.9729 20.206L31.5015 0.903094C30.8895 0.317063 30.0697 -0.00720842 29.2188 0.000121617C28.3679 0.00745165 27.554 0.345797 26.9523 0.942284C26.3506 1.53877 26.0093 2.34567 26.0019 3.1892C25.9945 4.03273 26.3216 4.84539 26.9128 5.45216L40.8446 19.2634H3.24525C2.38456 19.2634 1.55912 19.6024 0.950523 20.2057C0.341923 20.809 1.90735e-05 21.6273 1.90735e-05 22.4806C1.90735e-05 23.3338 0.341923 24.1521 0.950523 24.7555C1.55912 25.3588 2.38456 25.6977 3.24525 25.6977H40.8446L26.9128 39.509C26.3044 40.1123 25.9626 40.9305 25.9626 41.7835C25.9626 42.6366 26.3044 43.4548 26.9128 44.0581Z" fill="white"/>
</svg>
